<?xml version="1.0" encoding="UTF-8"?>
<svg id="Layer_1" data-name="Layer 1" xmlns="http://www.w3.org/2000/svg" xmlns:xlink="http://www.w3.org/1999/xlink" viewBox="0 0 64 64">
  <defs>
    <style>
      .cls-1 {
        fill: url(#linear-gradient-2);
      }

      .cls-2 {
        fill: url(#linear-gradient-3);
      }

      .cls-3 {
        fill: url(#linear-gradient);
      }
    </style>
    <linearGradient id="linear-gradient" x1="22.94" y1="22.13" x2="52.72" y2="22.13" gradientUnits="userSpaceOnUse">
      <stop offset="0" stop-color="#2adeff"/>
      <stop offset="1" stop-color="#002398"/>
    </linearGradient>
    <linearGradient id="linear-gradient-2" x1="11.39" y1="39.4" x2="41.16" y2="39.4" xlink:href="#linear-gradient"/>
    <linearGradient id="linear-gradient-3" x1="22.92" y1="49.32" x2="41.17" y2="49.32" xlink:href="#linear-gradient"/>
  </defs>
  <path class="cls-3" d="M41.1,13.96h9.1c1.26,0,2.33,1.66,2.42,2.82.33,4.37-.24,9.15-.02,13.56-.02,1.01-1.42,2.53-2.4,2.53h-4.68c.33.6,1.91,1.67,2.03,2.23.17.76-.27,1.21-1.04,1.04-.7-.16-3.45-3.56-4.29-4.14l3.9-3.91c.5-.46,1.3-.16,1.35.52.07.93-1.59,1.85-2.06,2.62h4.57c.24,0,.89-.62.93-.92l.05-13.52c.06-.4-.66-1.18-.98-1.18h-8.89v3.44c0,.98-1.42,2.3-2.43,2.3-4.21-.25-8.89.37-13.05.01-1.39-.12-2.42-1.03-2.61-2.43.13-2.6-.21-5.43-.02-8.01.12-1.56,1.03-2.59,2.62-2.72,4.16-.36,8.83.27,13.05.01,1.03.01,2.43,1.28,2.43,2.3v3.44ZM25.55,9.87c-.62.14-.84.54-.9,1.15-.23,2.41.18,5.16,0,7.61.04.65.53,1.09,1.18,1.08,4-.29,8.51.37,12.44,0,.78-.07,1.11-.4,1.18-1.18.17-1.83.17-5.68,0-7.51-.07-.74-.41-1.15-1.18-1.18l-12.72.03Z"/>
  <path class="cls-1" d="M23.01,32.87h-8.89c-.24,0-.89.62-.93.92l-.05,13.52c-.06.4.66,1.18.98,1.18h4.57c-.46-.76-2.23-1.78-2.05-2.72.09-.48.63-.65,1.06-.55.7.16,3.36,3.46,4.18,4.04l-4.29,4.14c-.77.16-1.21-.26-1.04-1.04.13-.57,1.7-1.64,2.03-2.23h-4.68c-1.26,0-2.33-1.66-2.42-2.82-.33-4.37.24-9.15.02-13.56.02-1.01,1.42-2.53,2.4-2.53h9.1v-3.44c0-1.03,1.39-2.29,2.43-2.3,4.21.25,8.89-.37,13.05-.01,1.59.14,2.5,1.16,2.62,2.72.19,2.58-.14,5.41-.02,8.01-.23,1.39-1.19,2.31-2.61,2.43-4.16.36-8.83-.27-13.05-.01-1.02-.02-2.43-1.28-2.43-2.3v-3.44ZM25.55,27.14c-.62.14-.84.54-.9,1.15-.23,2.41.18,5.16,0,7.61.04.65.53,1.09,1.18,1.08,4-.29,8.51.37,12.44,0,.78-.07,1.11-.4,1.18-1.18.17-1.83.17-5.68,0-7.51-.07-.74-.41-1.15-1.18-1.18l-12.72.03Z"/>
  <path class="cls-2" d="M25.35,42.77c4.24.22,8.95-.39,13.13-.03,1.51.13,2.49,1.11,2.62,2.62.22,2.56-.17,5.43,0,8.02-.19,1.43-1.17,2.4-2.62,2.52-4.15-.31-8.87.4-12.95,0-1.37-.14-2.38-1.15-2.52-2.52-.26-2.59.18-5.58.01-8.21.17-1.26,1.06-2.21,2.33-2.4ZM25.55,44.41c-.62.14-.84.54-.9,1.15-.23,2.41.18,5.16,0,7.61.04.65.53,1.09,1.18,1.08,4-.29,8.51.37,12.44,0,.78-.07,1.11-.4,1.18-1.18.17-1.83.17-5.68,0-7.51-.07-.74-.41-1.15-1.18-1.18l-12.72.03Z"/>
</svg>