<?xml version="1.0" encoding="UTF-8"?>
<svg id="Layer_1" data-name="Layer 1" xmlns="http://www.w3.org/2000/svg" width="64" height="64" xmlns:xlink="http://www.w3.org/1999/xlink" viewBox="0 0 64 64">
  <defs>
    <style>
      .cls-1 {
        fill: url(#linear-gradient);
      }
    </style>
    <linearGradient id="linear-gradient" x1="10.31" y1="32" x2="53.69" y2="32" gradientUnits="userSpaceOnUse">
      <stop offset="0" stop-color="#2adeff"/>
      <stop offset="1" stop-color="#002398"/>
    </linearGradient>
  </defs>
  <path class="cls-1" d="M52.69,33.32c-.88-.42-1.93-.05-2.36.83l-.95,1.97-1.3-6.08c-.17-.78-.83-1.35-1.62-1.39-.79-.04-1.52.44-1.77,1.2l-2.54,7.46-4.15-17.37c-.19-.79-.89-1.35-1.71-1.36h-.01c-.81,0-1.51.55-1.71,1.33l-3.37,13.29-2.22-8.34c-.21-.77-.91-1.31-1.71-1.31h-.03c-.81.01-1.51.58-1.69,1.37l-2.37,10.2-1.41-3.84c-.25-.68-.89-1.14-1.62-1.16-.01,0-.02,0-.04,0-.71,0-1.36.43-1.63,1.09l-1.9,4.6h-4.51c-.97,0-1.77.79-1.77,1.77s.79,1.77,1.77,1.77h5.69c.71,0,1.36-.43,1.63-1.09l.62-1.51,1.89,5.15c.27.73.98,1.19,1.77,1.16.78-.05,1.43-.6,1.61-1.36l2.11-9.07,2.15,8.07c.21.77.91,1.31,1.71,1.31h.01c.8,0,1.5-.55,1.7-1.33l3.27-12.92,3.9,16.34c.18.76.85,1.32,1.63,1.35.03,0,.06,0,.08,0,.75,0,1.43-.48,1.67-1.2l2.45-7.2,1.05,4.88c.16.74.77,1.29,1.52,1.38.75.1,1.47-.31,1.8-.99l3.18-6.63c.42-.88.05-1.93-.83-2.36Z"/>
</svg>