<?xml version="1.0" encoding="UTF-8"?>
<svg id="Layer_1" data-name="Layer 1" xmlns="http://www.w3.org/2000/svg" xmlns:xlink="http://www.w3.org/1999/xlink" viewBox="0 0 64 64">
  <defs>
    <style>
      .cls-1 {
        fill: url(#linear-gradient-2);
      }

      .cls-2 {
        fill: url(#linear-gradient-3);
      }

      .cls-3 {
        fill: url(#linear-gradient);
      }
    </style>
    <linearGradient id="linear-gradient" x1="30.84" y1="32.45" x2="42.1" y2="32.45" gradientUnits="userSpaceOnUse">
      <stop offset="0" stop-color="#2adeff"/>
      <stop offset="1" stop-color="#002398"/>
    </linearGradient>
    <linearGradient id="linear-gradient-2" x1="2.21" y1="30.18" x2="28.05" y2="30.18" xlink:href="#linear-gradient"/>
    <linearGradient id="linear-gradient-3" x1="45.03" y1="32.45" x2="62.41" y2="32.45" xlink:href="#linear-gradient"/>
  </defs>
  <path class="cls-3" d="M38.53,29.45c-.4-.29-.97-.21-1.26.19-.3.4-.21.97.19,1.26l.87.64h-6.58c-.5,0-.9.4-.9.9s.41.9.9.9h6.64l-.91.62c-.41.28-.52.85-.23,1.26.18.25.46.39.75.39.18,0,.35-.05.51-.16l3.2-2.2c.24-.17.39-.44.39-.73,0-.29-.13-.57-.37-.74l-3.2-2.35Z"/>
  <path class="cls-1" d="M27.45,30.97c-.52-.25-1.15-.03-1.4.49l-.56,1.17-.78-3.62c-.1-.46-.5-.8-.97-.83-.47-.03-.9.26-1.06.71l-1.51,4.44-2.47-10.35c-.11-.47-.53-.8-1.02-.81h0c-.48,0-.9.33-1.02.79l-2.01,7.92-1.32-4.97c-.12-.46-.54-.78-1.02-.78h-.02c-.48,0-.9.34-1.01.81l-1.41,6.07-.84-2.29c-.15-.41-.53-.68-.97-.69,0,0-.01,0-.02,0-.42,0-.81.26-.97.65l-1.13,2.74h-2.69c-.58,0-1.05.47-1.05,1.05s.47,1.05,1.05,1.05h3.39c.43,0,.81-.26.97-.65l.37-.9,1.12,3.07c.16.44.58.71,1.05.69.46-.03.85-.36.96-.81l1.26-5.4,1.28,4.8c.12.46.54.78,1.02.78h0c.48,0,.9-.33,1.01-.79l1.95-7.69,2.32,9.73c.11.46.51.78.97.81.02,0,.03,0,.05,0,.45,0,.85-.29,1-.71l1.46-4.29.62,2.91c.09.44.46.77.9.82.44.06.88-.18,1.07-.59l1.89-3.95c.25-.52.03-1.15-.49-1.4Z"/>
  <path class="cls-2" d="M61.5,31.55h-15.56c-.5,0-.9.4-.9.9s.41.9.9.9h15.56c.5,0,.9-.4.9-.9s-.41-.9-.9-.9Z"/>
</svg>