<?xml version="1.0" encoding="UTF-8"?>
<svg id="Layer_1" data-name="Layer 1" xmlns="http://www.w3.org/2000/svg" xmlns:xlink="http://www.w3.org/1999/xlink" viewBox="0 0 64 64">
  <defs>
    <style>
      .cls-1 {
        fill: url(#linear-gradient-2);
      }

      .cls-2 {
        fill: url(#linear-gradient-3);
      }

      .cls-3 {
        fill: url(#linear-gradient);
      }
    </style>
    <linearGradient id="linear-gradient" x1="13.36" y1="31.95" x2="50.55" y2="31.95" gradientUnits="userSpaceOnUse">
      <stop offset="0" stop-color="#2adeff"/>
      <stop offset="1" stop-color="#002398"/>
    </linearGradient>
    <linearGradient id="linear-gradient-2" x1="19.58" y1="26.78" x2="44.36" y2="26.78" xlink:href="#linear-gradient"/>
    <linearGradient id="linear-gradient-3" x1="27.84" y1="26.79" x2="37.09" y2="26.79" xlink:href="#linear-gradient"/>
  </defs>
  <path class="cls-3" d="M44.56,51.04c-.18.11-1.14,3.27-1.61,3.86-.87,1.1-2.49,1.05-3.33-.07l-5.56-9.69c-1.5-.76-2.72-.76-4.21,0l-5.56,9.69c-.85,1.14-2.52,1.16-3.37.02-.43-.57-1.39-3.7-1.56-3.81l-3.99.56c-1.51-.15-2.45-1.61-1.78-3.02l5.37-9.4c-.33-2.17-2.86-2.28-3.72-4.11-.75-1.59.1-3.01-.25-4.4-.32-1.27-1.49-2.09-1.61-3.62-.15-2.05,1.71-3.16,1.72-4.82,0-1.3-.51-2.29.12-3.68.73-1.61,2.75-1.92,3.42-3.26s.58-2.68,2.05-3.56c1.12-.67,1.91-.48,3.05-.72,1.4-.3,1.67-1.31,2.7-2.05,1.83-1.3,2.64-.67,4.47-.13,2.52.74,3.75-1.79,6.5.09,1.07.73,1.34,1.78,2.76,2.09,1.24.27,2.37.06,3.46,1s1.08,2.16,1.65,3.29c.73,1.45,2.97,1.68,3.56,3.6.4,1.3-.04,2.16-.03,3.32,0,1.65,1.88,2.78,1.73,4.83-.11,1.52-1.24,2.31-1.59,3.55-.39,1.4.49,2.87-.27,4.48-.87,1.85-3.46,1.95-3.72,4.18l5.34,9.27c.72,1.32-.18,2.94-1.66,3.07-.66.06-3.85-.68-4.07-.55ZM42.28,13.58c-.55-.49-2.7-.44-3.69-.91s-2.36-2.31-3.02-2.41c-.8-.12-2.53.89-3.67.88-1.08-.01-2.8-1-3.58-.88-.68.1-2.05,1.95-3.02,2.41s-3.15.43-3.69.91c-.64.57-.92,2.56-1.68,3.5-.68.86-2.41,1.53-2.81,2.23-.45.78.09,2.42,0,3.39-.13,1.54-1.02,2.13-1.5,3.34-.61,1.55.99,2.59,1.36,4.06.34,1.34-.12,2.17-.06,3.35.08,1.46,2.03,1.91,2.91,2.9.78.88.85,1.81,1.27,2.79.63,1.46,1.51,1.1,2.82,1.35,1.91.35,2.11.99,3.37,2.15s2.02.34,3.39,0c.92-.23,1.6-.23,2.52,0,1.38.35,2.08,1.22,3.39,0,.75-.7,1.03-1.3,2.09-1.78s2.85-.35,3.52-.84,1-2.71,1.84-3.68,2.83-1.45,2.91-2.9c.06-1.18-.39-2.01-.06-3.35.38-1.52,2.01-2.52,1.33-4.13-.51-1.19-1.34-1.78-1.47-3.28-.09-.98.44-2.53.04-3.33-.32-.65-2.2-1.47-2.85-2.28-.75-.95-1.04-2.93-1.68-3.5ZM27.39,45.13c-1.26-.33-2.03-1.97-3.06-2.41-.75-.32-1.84-.22-2.71-.48-.52-.16-1.04-.41-1.43-.8h-.14s-4.55,8.03-4.55,8.03l4.51-.68c.39.04.74.27.94.61.27.47,1.45,4.14,1.68,4.13l4.78-8.41ZM43.86,41.44c-.08-.05-.72.47-.93.57-1.47.71-2.94.13-4.2,1.32-.28.26-.49.63-.82.92-.38.33-.93.7-1.4.88l4.79,8.42c.22,0,1.41-3.66,1.68-4.13.19-.34.55-.57.94-.61l4.51.68-4.55-8.04Z"/>
  <path class="cls-1" d="M30.58,14.45c8.87-.79,15.78,7.23,13.26,15.87-2.88,9.88-16.11,12.02-22.04,3.59-5.35-7.61-.51-18.64,8.78-19.47ZM31.06,16.49c-7.44.63-11.76,8.78-8.13,15.34s13.49,7.08,17.68.6c4.68-7.23-1.01-16.66-9.55-15.94Z"/>
  <path class="cls-2" d="M36.86,22.97c.25.28.3.86.15,1.2-1.47,1.86-2.62,4.36-4.11,6.16-.44.53-.84.77-1.53.4l-3.41-3.46c-.39-.78.24-1.67,1.11-1.5.65.13,2.63,2.6,2.78,2.5l3.48-5.28c.37-.44,1.15-.44,1.52-.01Z"/>
</svg>