<?xml version="1.0" encoding="UTF-8"?>
<svg id="Layer_1" data-name="Layer 1" xmlns="http://www.w3.org/2000/svg" width="64" height="64" xmlns:xlink="http://www.w3.org/1999/xlink" viewBox="0 0 64 64">
  <defs>
    <style>
      .cls-1 {
        fill: url(#linear-gradient-2);
      }

      .cls-2 {
        fill: url(#linear-gradient-3);
      }

      .cls-3 {
        fill: url(#linear-gradient);
      }
    </style>
    <linearGradient id="linear-gradient" x1="7.42" y1="23.17" x2="70.61" y2="23.17" gradientUnits="userSpaceOnUse">
      <stop offset="0" stop-color="#2adeff"/>
      <stop offset="1" stop-color="#002398"/>
    </linearGradient>
    <linearGradient id="linear-gradient-2" x1="29.79" y1="38.6" x2="54.2" y2="38.6" xlink:href="#linear-gradient"/>
    <linearGradient id="linear-gradient-3" x1="36.97" y1="38.6" x2="47.02" y2="38.6" xlink:href="#linear-gradient"/>
  </defs>
  <path class="cls-3" d="M53.21,27.65c-.06.31-.15.6-.24.91-.14.09-.28.21-.4.36h-.01s-2.22-.96-2.22-.96c.17-.46.3-.93.4-1.4,1-4.73-.62-9.85-4.62-13.1-5.71-4.65-14.14-3.81-18.8,1.9-.4.5-1.09.64-1.65.35-1.5-.78-3.2-1.2-4.9-1.2h-.14c-5.9.09-10.63,4.95-10.54,10.85.08,5.88,4.94,10.61,10.83,10.53h9.44c.12.89.24,1.79.37,2.67h-9.95c-7.29,0-13.27-5.88-13.36-13.18-.09-7.37,5.81-13.43,13.18-13.52,1.83-.04,3.65.32,5.34,1.02,5.7-6.13,15.29-6.87,21.87-1.49,4.96,4.02,6.87,10.44,5.41,16.26Z"/>
  <g>
    <path class="cls-1" d="M53.77,27.89l-.55-.24-2.48-1.09-8.45-3.69c-.19-.08-.4-.08-.58,0l-11.49,5.03c-.26.12-.42.37-.42.66v9.33c0,.23,0,.45.01.68.14,3.52,1.4,6.74,3.74,9.57,1.99,2.42,4.73,4.5,8.13,6.2.1.05.22.08.32.08.12,0,.22-.03.32-.08,3.39-1.7,6.13-3.78,8.14-6.2,2.48-3.01,3.75-6.45,3.75-10.25v-9.33c0-.28-.17-.54-.44-.66ZM52.76,37.88c0,7.78-5.79,12.43-10.77,15-4.99-2.57-10.76-7.23-10.76-15v-8.86l10.76-4.72,8.34,3.65,2.22.98.21.09v8.86Z"/>
    <path class="cls-2" d="M46.84,35.85l-5.75,6.47c-.13.15-.32.23-.53.23h-.03c-.21,0-.41-.1-.54-.26l-2.87-3.6c-.26-.31-.21-.76.1-1,.31-.26.77-.21,1.02.1l2.34,2.93,5.18-5.82c.26-.3.71-.32,1-.06.31.27.33.72.06,1.02Z"/>
  </g>
</svg>