<?xml version="1.0" encoding="UTF-8"?>
<svg id="Layer_1" xmlns="http://www.w3.org/2000/svg" version="1.1" xmlns:xlink="http://www.w3.org/1999/xlink" viewBox="0 0 64 64">
  <!-- Generator: Adobe Illustrator 29.8.4, SVG Export Plug-In . SVG Version: 2.1.1 Build 6)  -->
  <defs>
    <style>
      .st0 {
        stroke: url(#linear-gradient2);
      }

      .st0, .st1, .st2, .st3, .st4, .st5 {
        fill: none;
        stroke-miterlimit: 10;
        stroke-width: 2px;
      }

      .st1 {
        stroke: url(#linear-gradient3);
      }

      .st2 {
        stroke: url(#linear-gradient4);
      }

      .st3 {
        stroke: url(#linear-gradient1);
      }

      .st6 {
        fill: url(#linear-gradient6);
      }

      .st4 {
        stroke: url(#linear-gradient);
      }

      .st5 {
        stroke: url(#linear-gradient5);
      }
    </style>
    <linearGradient id="linear-gradient" x1="102.6" y1="31.4" x2="153.9" y2="31.4" gradientUnits="userSpaceOnUse">
      <stop offset="0" stop-color="#2adeff"/>
      <stop offset="1" stop-color="#002398"/>
    </linearGradient>
    <linearGradient id="linear-gradient1" x1="5.6" y1="32" x2="58.4" y2="32" xlink:href="#linear-gradient"/>
    <linearGradient id="linear-gradient2" x1="12.9" y1="19.1" x2="25.3" y2="19.1" xlink:href="#linear-gradient"/>
    <linearGradient id="linear-gradient3" x1="37.8" y1="19.1" x2="50.3" y2="19.1" gradientTransform="translate(88.5) rotate(-180) scale(1 -1)" xlink:href="#linear-gradient"/>
    <linearGradient id="linear-gradient4" x1="12.9" y1="55.8" x2="25.3" y2="55.8" gradientTransform="translate(0 100.5) scale(1 -1)" xlink:href="#linear-gradient"/>
    <linearGradient id="linear-gradient5" x1="37.8" y1="55.8" x2="50.3" y2="55.8" gradientTransform="translate(88.5 100.5) rotate(-180)" xlink:href="#linear-gradient"/>
    <linearGradient id="linear-gradient6" x1="27.9" y1="32" x2="36.1" y2="32" xlink:href="#linear-gradient"/>
  </defs>
  <path class="st4" d="M115.2,38c4-4.7,8-9.3,12-14-7-2.5-14-5.1-21-7.6,1.4-.8,2.9-1.6,4.3-2.5,9.5.1,19,.2,28.6.4,2.2-2.4,4.5-4.7,6.7-7.1,2.3,0,4.7.1,7,.2l-.4,6.4c-2.3,2.5-4.6,5-6.8,7.5,0,9.6,0,19.1,0,28.7-.8,1.3-1.7,2.7-2.5,4-2.5-7.3-5-14.6-7.5-21.9-4.7,4.2-9.3,8.4-14,12.6.2,2,.5,4,.7,6-1.6,1.4-3.2,2.8-4.9,4.2-1-3.2-2.1-6.4-3.1-9.5-3.2-1.1-6.5-2.2-9.7-3.3,1.7-1.5,3.3-3,5-4.4,1.9.2,3.8.3,5.7.5Z"/>
  <g>
    <path class="st3" d="M32.4,6.8c.2.2.3.5.4.7,1.7,5.4,3.2,10.9,4.8,16.4.2.6.4,1.3.8,1.7.4.4.9.5,1.4.7,5.6,1.7,11.3,3.1,16.8,4.9.4.1.8.3.8.7,0,.5-.5.7-.9.9-3.6,1.1-7.1,2.2-10.7,3.2s-5,1.3-7.5,2.2c0,0-.5,1.1-.6,1.4-1.7,5.5-3.2,11.1-4.7,16.6-.2.6-.5,1.2-1.1,1.2-.5,0-.7-.6-.8-1.1-1.7-5.8-3.4-11.5-5.1-17.3,0-.3-.2-.6-.4-.8-.2-.2-.4-.3-.7-.3-5.4-1.7-10.8-3.3-16.3-4.8-.7-.2-2.9-.8-1.5-1.8.5-.3,1.1-.5,1.6-.6,5.4-1.6,10.9-3.1,16.4-4.6.2,0,.4-.1.6-.3.2-.2.3-.4.4-.7,1.7-5.8,3.5-11.7,5.2-17.5.1-.5.4-1,.9-1,.2,0,.3,0,.4.2Z"/>
    <g>
      <path class="st0" d="M24.9,19.4c-.4-.2-1-.5-1.2-.6-1.9-1-3.8-2-5.7-3.1-1-.5-1.9-1.1-2.9-1.6-.2,0-.4-.2-.6-.2s-.4,0-.6.1c-.1.1-.2.4-.1.6s.1.4.2.5c1.7,3.3,3.5,6.5,5.2,9.7"/>
      <path class="st1" d="M44.3,24.8c1.8-3.2,3.5-6.5,5.2-9.7,0-.2.2-.4.2-.5s0-.4-.1-.6c-.1-.1-.4-.2-.6-.1s-.4.1-.6.2c-1,.5-1.9,1.1-2.9,1.6-1.9,1-3.8,2.1-5.7,3.1-.2.1-.8.4-1.2.6"/>
    </g>
    <g>
      <path class="st2" d="M19.3,39c-1.8,3.2-3.5,6.5-5.2,9.7,0,.2-.2.4-.2.5s0,.4.1.6c.1.1.4.2.6.1s.4-.1.6-.2c1-.5,1.9-1.1,2.9-1.6,1.9-1,3.8-2.1,5.7-3.1.2-.1.8-.4,1.2-.6"/>
      <path class="st5" d="M38.7,44.4c.4.2,1,.5,1.2.6,1.9,1,3.8,2,5.7,3.1,1,.5,1.9,1.1,2.9,1.6.2,0,.4.2.6.2s.4,0,.6-.1c.1-.1.2-.4.1-.6s-.1-.4-.2-.5c-1.7-3.3-3.5-6.5-5.2-9.7"/>
    </g>
    <path class="st6" d="M31.5,28c3.7-.4,6.1,3.9,3.6,6.7-3.2,3.7-9-.5-6.6-4.7s1.8-1.9,3-2.1Z"/>
  </g>
  <image width="552" height="600" transform="translate(-8160 -8160)" xlink:href="SPACE-1.png"/>
</svg>